<?xml version="1.0" standalone="no"?>
<!DOCTYPE svg PUBLIC "-//W3C//DTD SVG 20010904//EN"
 "http://www.w3.org/TR/2001/REC-SVG-20010904/DTD/svg10.dtd">
<svg version="1.0" xmlns="http://www.w3.org/2000/svg"
 width="300.000000pt" height="200.000000pt" viewBox="0 0 300.000000 200.000000"
 preserveAspectRatio="xMidYMid meet">

<g transform="translate(0.000000,200.000000) scale(0.100000,-0.100000)"
fill="#000000" stroke="none">
<path d="M371 643 c-12 -10 -86 -126 -165 -258 -139 -231 -143 -240 -119 -243
68 -9 115 38 233 236 47 78 88 142 92 142 3 0 64 -97 134 -216 70 -118 143
-228 161 -244 33 -29 108 -59 119 -47 8 8 -333 594 -363 625 -26 26 -63 28
-92 5z"/>
<path d="M620 615 l0 -45 105 0 105 0 0 -215 0 -215 45 0 45 0 0 215 0 215
100 0 100 0 0 45 0 45 -250 0 -250 0 0 -45z"/>
<path d="M1160 450 c0 -229 4 -248 56 -289 25 -20 39 -21 213 -21 l186 0 22
39 23 40 -190 3 c-166 3 -192 5 -207 21 -16 15 -18 41 -21 200 -4 196 -9 217
-59 217 l-23 0 0 -210z"/>
<path d="M1953 638 c-12 -13 -85 -129 -162 -258 -126 -210 -139 -235 -120
-238 69 -11 109 28 225 219 54 87 100 159 103 159 4 0 45 -64 91 -142 117
-197 165 -245 232 -236 24 3 18 14 -119 248 -79 135 -151 251 -160 258 -26 19
-67 14 -90 -10z"/>
<path d="M2424 646 c-90 -40 -108 -164 -33 -233 38 -33 93 -43 255 -43 138 0
154 -2 178 -21 34 -27 34 -68 0 -100 -25 -24 -28 -24 -255 -27 -126 -2 -229
-6 -229 -9 0 -3 9 -21 21 -39 l21 -34 216 0 c243 0 265 5 310 70 29 44 31 131
2 177 -37 61 -79 73 -254 73 -85 0 -166 4 -180 10 -34 12 -44 54 -21 80 17 19
32 20 232 20 l213 0 0 45 0 45 -222 0 c-164 -1 -231 -4 -254 -14z"/>
</g>
</svg>
